<svg width="32" height="32" viewBox="0 0 32 32" fill="none" xmlns="http://www.w3.org/2000/svg">
<path fill-rule="evenodd" clip-rule="evenodd" d="M16 3.29058e-06C15.488 -0.000789618 14.986 0.141729 14.5509 0.411432L1.04229 9.25715C0.0822857 9.89029 -0.210286 10.9806 0.16 11.9109C0.516571 12.8069 1.41714 13.4126 2.49143 13.4126H29.5086C30.5829 13.4126 31.4834 12.8069 31.84 11.9109C32.2103 10.9806 31.9177 9.89029 30.96 9.25943L30.9577 9.25715L17.4491 0.411432C17.014 0.141729 16.512 -0.000789618 16 3.29058e-06ZM0 26.9966C0 25.6251 1.30743 24.9646 2.28571 24.9646H2.41143L2.40457 24.8411V17.5017C2.40457 17.1986 2.52498 16.9079 2.73931 16.6936C2.95363 16.4793 3.24432 16.3589 3.54743 16.3589H7.35086C7.65396 16.3589 7.94465 16.4793 8.15898 16.6936C8.37331 16.9079 8.49371 17.1986 8.49371 17.5017V24.8411L8.48686 24.9646H12.9623L12.9554 24.8411V17.5017C12.9554 17.1986 13.0758 16.9079 13.2902 16.6936C13.5045 16.4793 13.7952 16.3589 14.0983 16.3589H17.9017C18.0518 16.3589 18.2004 16.3884 18.3391 16.4459C18.4777 16.5033 18.6037 16.5875 18.7098 16.6936C18.816 16.7997 18.9001 16.9257 18.9576 17.0644C19.015 17.203 19.0446 17.3516 19.0446 17.5017V24.8411L19.0377 24.9646H23.5131L23.5063 24.8411V17.5017C23.5063 17.1986 23.6267 16.9079 23.841 16.6936C24.0553 16.4793 24.346 16.3589 24.6491 16.3589H28.4526C28.7557 16.3589 29.0464 16.4793 29.2607 16.6936C29.475 16.9079 29.5954 17.1986 29.5954 17.5017V24.8411L29.5886 24.9646H29.7143C30.6926 24.9646 32 25.6251 32 26.9989V29.6663C32 31.0377 30.6926 31.6983 29.7143 31.6983H2.28571C1.30743 31.6983 0 31.0377 0 29.664V26.9966Z" fill="white"/>
</svg>
