<svg width="20" height="24" viewBox="0 0 20 24" fill="none" xmlns="http://www.w3.org/2000/svg">
<path d="M0 23.5H20M6.646 15C7.12071 15.5305 7.71452 15.9409 8.37864 16.1973C9.04277 16.4537 9.75826 16.5489 10.4663 16.4751C11.1744 16.4012 11.8548 16.1604 12.4518 15.7725C13.0487 15.3845 13.545 14.8605 13.9 14.2434C14.2551 13.6263 14.4586 12.9338 14.494 12.2228C14.5293 11.5118 14.3955 10.8025 14.1034 10.1533C13.8114 9.50402 13.3694 8.93333 12.8139 8.48808C12.2585 8.04283 11.6053 7.73573 10.908 7.592M10.908 7.592L8.5 10L5 6.5L10.47 1.03C10.6381 0.861887 10.8376 0.728528 11.0573 0.637543C11.2769 0.546558 11.5123 0.499728 11.75 0.499728C11.9877 0.499728 12.2231 0.546558 12.4427 0.637543C12.6624 0.728528 12.8619 0.861887 13.03 1.03L13.97 1.97C14.1381 2.13808 14.2715 2.33763 14.3625 2.55726C14.4534 2.77688 14.5003 3.01228 14.5003 3.25C14.5003 3.48773 14.4534 3.72312 14.3625 3.94275C14.2715 4.16237 14.1381 4.36192 13.97 4.53L13.258 5.242M10.908 7.592L13.258 5.242M3.124 15C3.5692 16.0171 4.23409 16.923 5.07092 17.6526C5.90775 18.3822 6.89576 18.9175 7.964 19.22M7.964 19.22C8.54002 18.7535 9.25877 18.4989 10 18.4989C10.7412 18.4989 11.46 18.7535 12.036 19.22M7.964 19.22C7.60414 19.5102 7.31143 19.8749 7.106 20.289L6.5 21.5C6.5 21.5 5.5 23.5 3.5 23.5H16.5C14.5 23.5 13.5 21.5 13.5 21.5L12.894 20.289C12.6886 19.8749 12.3959 19.5102 12.036 19.22M4.5 9.5L6 11M0 13.5H9M13.258 5.242C14.6294 5.90378 15.7669 6.96715 16.5195 8.29084C17.2722 9.61452 17.6042 11.1359 17.4716 12.6528C17.339 14.1697 16.748 15.6103 15.7771 16.7834C14.8062 17.9564 13.5014 18.8062 12.036 19.22M13.5 1.5L14.6 0.400002" stroke="white"/>
</svg>
